<?xml version="1.0" standalone="no"?>
<!DOCTYPE svg PUBLIC "-//W3C//DTD SVG 20010904//EN"
 "http://www.w3.org/TR/2001/REC-SVG-20010904/DTD/svg10.dtd">
<svg version="1.0" xmlns="http://www.w3.org/2000/svg"
 width="820.000000pt" height="800.000000pt" viewBox="0 0 820.000000 800.000000"
 preserveAspectRatio="xMidYMid meet">

<g transform="translate(0.000000,800.000000) scale(0.100000,-0.100000)"
fill="#000000" stroke="none">
<path d="M1515 7692 c-93 -7 -386 -54 -455 -73 -41 -12 -79 -22 -85 -23 -28
-8 -166 -67 -179 -77 -6 -5 -39 -27 -72 -49 -92 -60 -138 -109 -180 -195 -45
-91 -54 -167 -36 -300 7 -44 14 -127 17 -185 3 -58 8 -112 10 -120 7 -26 25
-211 31 -325 3 -60 8 -114 11 -119 7 -11 29 -230 43 -421 5 -77 14 -162 20
-190 5 -27 14 -117 20 -200 6 -82 17 -211 25 -285 31 -292 47 -448 51 -515 3
-38 12 -129 20 -200 8 -72 17 -164 19 -205 7 -95 45 -462 50 -469 2 -4 6 -62
9 -131 4 -69 11 -153 17 -188 5 -35 14 -122 20 -195 5 -73 16 -184 24 -247 7
-63 17 -164 20 -225 4 -60 10 -126 15 -145 5 -19 14 -111 20 -205 7 -93 14
-179 16 -189 8 -41 14 -94 24 -216 7 -69 18 -190 25 -270 7 -80 18 -201 25
-270 6 -69 17 -181 25 -250 8 -69 17 -161 20 -205 3 -44 12 -141 20 -215 8
-74 19 -189 25 -255 6 -66 15 -147 20 -180 5 -33 9 -88 9 -123 1 -72 22 -122
51 -122 17 0 19 5 15 43 -10 84 -25 273 -24 302 l1 30 13 -30 c8 -16 14 -48
15 -71 0 -28 9 -55 30 -85 16 -24 33 -44 37 -44 4 -1 19 -5 32 -9 12 -4 27 -4
32 1 42 42 319 2689 484 4638 20 230 37 421 39 422 14 14 1748 103 2981 153
138 5 300 12 361 16 l111 6 6 91 c25 383 283 641 696 697 74 11 143 11 345 1
630 -30 884 -68 1129 -169 53 -22 97 -38 97 -37 0 21 -259 147 -329 160 -14 3
-51 11 -81 19 -89 22 -22 18 235 -14 132 -17 248 -30 258 -28 19 3 19 3 0 26
-15 20 -33 25 -103 33 -47 5 -110 14 -140 19 -54 9 -148 24 -370 56 -63 9
-140 20 -170 25 -30 4 -82 11 -115 14 -33 3 -143 17 -245 31 -164 22 -322 42
-475 59 -27 4 -86 13 -130 20 -44 8 -109 17 -145 20 -36 3 -92 10 -125 15 -33
6 -112 17 -175 25 -188 25 -406 54 -550 75 -74 10 -191 26 -260 35 -69 10
-150 21 -181 26 -30 4 -75 10 -100 13 -154 15 -187 20 -209 32 -14 7 -133 27
-265 44 -132 17 -422 56 -645 86 -223 30 -569 77 -770 104 -201 27 -412 56
-470 64 -58 9 -131 16 -162 16 -79 0 -84 -10 -101 -193 -17 -173 -24 -187 -96
-187 -25 0 -129 7 -232 16 -141 11 -202 13 -244 5 -40 -8 -103 -7 -212 0 -85
6 -165 8 -179 5 -13 -4 -31 -17 -40 -31 -14 -22 -15 -42 -5 -187 11 -151 29
-398 66 -918 8 -113 19 -275 25 -360 5 -85 15 -213 20 -285 6 -71 19 -260 30
-420 11 -159 24 -353 30 -430 13 -179 33 -451 70 -990 17 -236 35 -491 40
-565 6 -74 21 -297 35 -495 13 -198 31 -454 40 -570 8 -115 20 -284 25 -375 6
-91 14 -207 18 -258 4 -51 5 -95 2 -97 -4 -2 -12 53 -18 123 -6 70 -27 287
-47 482 -19 195 -87 886 -150 1535 -63 649 -128 1317 -145 1485 -16 168 -52
539 -80 825 -27 286 -54 565 -60 620 -6 55 -35 359 -66 675 -48 493 -55 584
-46 639 44 266 326 443 822 515 276 40 537 43 915 10 787 -67 1280 -163 1567
-305 43 -21 78 -36 78 -34 0 8 -139 95 -152 95 -7 0 -23 7 -34 15 -29 20 -116
53 -199 76 -38 11 -92 26 -120 34 -87 26 -199 54 -240 60 -22 3 -78 12 -125
21 -47 8 -118 19 -157 25 -40 5 -112 16 -159 24 -48 8 -107 15 -132 15 -25 0
-121 9 -212 19 -311 36 -686 50 -905 33z m481 -727 c60 -8 226 -30 369 -49
677 -92 1850 -250 2120 -286 165 -22 329 -45 365 -50 36 -5 202 -28 370 -50
641 -85 1462 -200 1475 -205 11 -5 -134 0 -417 15 -213 11 -327 3 -459 -34
-90 -24 -183 -67 -254 -116 -57 -39 -153 -145 -193 -212 -38 -64 -80 -182 -87
-242 -14 -119 -18 -139 -40 -163 l-22 -27 -529 -22 c-1308 -57 -2615 -122
-2774 -140 -100 -11 -108 -22 -121 -182 -5 -64 -16 -193 -24 -287 -15 -186
-46 -537 -70 -795 -44 -475 -82 -870 -101 -1055 -8 -82 -19 -197 -24 -255 -9
-95 -44 -442 -70 -695 -44 -427 -79 -757 -110 -1035 -6 -52 -15 -124 -20 -160
-5 -36 -12 -96 -16 -135 -4 -38 -9 -64 -11 -57 -6 17 37 539 312 3757 162
1885 194 2268 200 2335 7 82 16 160 19 160 1 0 51 -7 112 -15z m-911 -361 c55
-3 107 -8 116 -10 21 -6 27 -161 34 -944 3 -316 8 -676 10 -800 32 -1508 39
-4059 10 -4028 -6 7 -29 320 -190 2608 -25 355 -59 834 -75 1065 -16 231 -54
773 -85 1205 -30 432 -57 816 -61 854 l-6 69 73 -6 c41 -4 119 -9 174 -13z
m455 -30 c240 -23 230 -21 225 -58 -2 -17 -9 -92 -15 -166 -6 -74 -17 -209
-25 -300 -8 -91 -24 -273 -35 -405 -11 -132 -25 -292 -31 -355 -5 -63 -14
-167 -19 -230 -16 -188 -79 -922 -95 -1105 -8 -93 -24 -276 -35 -405 -40 -479
-135 -1584 -143 -1660 -2 -19 -5 6 -5 55 -7 345 -24 1609 -37 2620 -8 660 -17
1388 -21 1618 l-7 419 44 -6 c24 -3 114 -13 199 -22z m5223 -261 c-7 -2 -19
-2 -25 0 -7 3 -2 5 12 5 14 0 19 -2 13 -5z m-5416 -5650 c-3 -10 -5 -4 -5 12
0 17 2 24 5 18 2 -7 2 -21 0 -30z m-160 -35 c-2 -13 -4 -3 -4 22 0 25 2 35 4
23 2 -13 2 -33 0 -45z"/>
</g>
</svg>
