<?xml version="1.0" standalone="no"?>
<!DOCTYPE svg PUBLIC "-//W3C//DTD SVG 20010904//EN"
 "http://www.w3.org/TR/2001/REC-SVG-20010904/DTD/svg10.dtd">
<svg version="1.0" xmlns="http://www.w3.org/2000/svg"
 width="880.000000pt" height="697.000000pt" viewBox="0 0 880.000000 697.000000"
 preserveAspectRatio="xMidYMid meet">

<g transform="translate(0.000000,697.000000) scale(0.100000,-0.100000)"
fill="#000000" stroke="none">
<path d="M4030 6541 c-6 -13 -10 -188 -10 -498 0 -522 0 -523 53 -509 l27 6 0
498 c0 374 -3 501 -12 510 -18 18 -46 14 -58 -7z"/>
<path d="M2387 6094 c-4 -4 -7 -15 -7 -25 0 -27 496 -854 514 -857 19 -4 46
15 46 32 0 6 -112 200 -249 431 -208 352 -252 420 -273 423 -13 2 -27 0 -31
-4z"/>
<path d="M3325 6084 c-8 -9 -14 -24 -11 -33 29 -98 170 -540 177 -553 12 -22
42 -23 58 -4 10 12 -7 74 -78 302 -97 308 -107 327 -146 288z"/>
<path d="M5445 5683 c-137 -230 -249 -426 -249 -437 -1 -25 29 -44 49 -31 27
18 506 836 503 859 -2 14 -11 22 -29 24 -25 3 -41 -22 -274 -415z"/>
<path d="M4772 6078 c-14 -18 -124 -552 -120 -585 2 -21 9 -29 27 -31 13 -2
27 0 31 5 5 4 36 140 70 301 48 230 59 297 49 308 -14 17 -43 18 -57 2z"/>
<path d="M6746 5994 c-25 -24 -20 -36 42 -97 61 -60 96 -72 107 -37 9 28 -97
150 -130 150 -2 0 -11 -7 -19 -16z"/>
<path d="M1852 5979 c-24 -12 -54 -36 -67 -53 -102 -135 2 -328 170 -314 240
20 236 370 -3 385 -44 3 -67 -1 -100 -18z m132 -63 c106 -44 100 -190 -9 -226
-72 -24 -155 35 -155 108 0 48 32 100 73 117 41 18 50 18 91 1z"/>
<path d="M7097 5941 c-58 -61 -66 -78 -45 -99 22 -22 43 -12 101 46 57 58 72
94 41 106 -30 12 -41 6 -97 -53z"/>
<path d="M6788 5633 c-62 -63 -70 -86 -37 -104 19 -10 29 -4 88 55 55 56 64
69 55 84 -21 33 -47 25 -106 -35z"/>
<path d="M7047 5683 c-20 -19 -3 -54 52 -106 33 -32 64 -57 70 -57 5 0 17 7
25 16 9 8 16 20 16 25 0 6 -25 37 -57 70 -52 55 -87 72 -106 52z"/>
<path d="M2030 5355 c-7 -8 -9 -24 -6 -37 4 -13 101 -108 217 -213 164 -149
216 -190 237 -190 22 0 28 5 30 25 3 22 -29 55 -218 228 -122 111 -227 202
-234 202 -8 0 -19 -7 -26 -15z"/>
<path d="M5891 5145 c-231 -258 -227 -253 -214 -274 6 -9 22 -16 36 -16 20 0
63 43 221 219 108 121 196 227 196 236 0 20 -19 40 -40 40 -9 0 -98 -92 -199
-205z"/>
<path d="M1221 4906 c-7 -8 -11 -23 -9 -33 3 -21 843 -506 866 -501 23 5 39
35 27 53 -10 15 -817 478 -854 490 -10 3 -24 -1 -30 -9z"/>
<path d="M6443 4672 c-233 -130 -425 -243 -428 -249 -7 -20 5 -42 26 -48 13
-5 147 65 447 233 408 229 427 241 427 268 0 24 -5 29 -25 31 -17 2 -162 -74
-447 -235z"/>
<path d="M3390 4703 c-11 -16 -96 -158 -189 -318 l-169 -290 -503 -5 c-436 -4
-509 -7 -545 -22 -179 -72 -303 -212 -339 -385 -21 -100 -22 -2235 -1 -2334
40 -185 175 -332 366 -395 52 -18 128 -19 1468 -22 l1412 -3 0 -99 c0 -91 2
-100 22 -114 20 -14 155 -16 1249 -16 1175 0 1227 1 1242 18 15 17 17 61 17
426 0 316 3 408 13 411 6 2 45 14 85 26 56 16 76 27 84 45 10 20 -4 76 -83
342 -77 260 -94 331 -97 397 -3 73 -6 82 -31 105 -25 22 -43 75 -141 410 -61
212 -119 393 -128 403 -8 9 -26 17 -39 17 -13 0 -147 -36 -297 -80 -151 -44
-276 -80 -280 -80 -3 0 -6 109 -6 243 0 263 -8 322 -56 424 -35 74 -139 182
-211 221 -118 62 -119 62 -649 62 l-482 0 -187 320 -187 320 -659 0 -658 0
-21 -27z m1461 -348 c93 -159 178 -302 189 -317 l21 -28 493 0 c457 0 499 -1
555 -19 121 -37 211 -115 263 -226 41 -89 49 -159 46 -420 l-3 -230 -585 -172
c-322 -95 -594 -174 -606 -177 -19 -5 -24 6 -58 109 -62 187 -157 336 -303
476 -171 163 -372 264 -604 305 -138 24 -350 15 -484 -20 -120 -32 -313 -124
-406 -195 -161 -122 -300 -304 -375 -490 -67 -166 -87 -282 -81 -476 6 -177
22 -256 82 -403 55 -135 128 -244 245 -363 162 -165 323 -259 538 -316 120
-31 340 -42 460 -23 219 35 433 133 580 265 28 25 53 45 56 45 3 0 6 -148 6
-330 l0 -330 -1397 0 c-1495 0 -1442 -1 -1542 50 -68 34 -147 120 -184 197
l-32 68 -3 1159 c-3 1298 -7 1212 71 1327 48 73 117 129 197 162 54 22 65 22
572 27 284 3 518 7 521 10 2 3 86 146 187 318 l182 312 615 -2 615 -3 169
-290z m-615 -780 c350 -57 653 -286 804 -608 37 -78 84 -226 76 -235 -10 -10
-309 -93 -320 -89 -7 3 -17 28 -24 56 -40 175 -178 355 -345 450 -108 62 -189
83 -333 88 -113 5 -141 2 -210 -17 -215 -59 -379 -193 -473 -385 -53 -108 -73
-198 -73 -320 0 -123 21 -215 72 -320 122 -252 373 -408 655 -408 166 1 310
48 441 145 102 76 202 209 242 321 9 26 19 47 23 47 13 0 119 -386 119 -433 0
-46 -3 -51 -68 -115 -133 -131 -307 -230 -490 -279 -87 -24 -115 -27 -267 -27
-151 0 -181 3 -266 26 -381 103 -674 396 -776 776 -24 87 -27 115 -27 267 0
151 3 181 26 266 77 285 269 532 525 675 84 47 230 99 323 114 41 6 82 13 90
15 44 8 196 3 276 -10z m2899 -737 c54 -183 100 -339 102 -345 4 -10 -91 -13
-457 -13 l-461 0 -54 51 c-77 73 -122 69 -142 -11 l-9 -35 -596 -5 c-484 -4
-598 -8 -611 -19 -12 -9 -17 -30 -18 -65 l-1 -51 -28 85 c-15 47 -25 88 -21
92 6 7 2165 646 2187 647 6 1 55 -149 109 -331z m-2915 306 c150 -35 321 -158
399 -288 93 -156 119 -365 66 -535 -110 -347 -488 -539 -831 -421 -94 33 -165
80 -249 164 -129 130 -188 273 -188 451 0 181 61 323 193 455 93 94 183 147
295 174 80 19 234 19 315 0z m1985 -654 c3 -5 1 -10 -4 -10 -6 0 -11 5 -11 10
0 6 2 10 4 10 3 0 8 -4 11 -10z m1095 -900 l0 -770 -1147 2 -1148 3 -3 768 -2
767 1150 0 1150 0 0 -770z m154 166 c10 -32 16 -59 14 -61 -2 -2 -12 -5 -23
-7 -18 -3 -20 3 -23 72 -3 86 7 85 32 -4z"/>
<path d="M5656 3558 c-73 -20 -146 -118 -146 -194 0 -65 52 -149 109 -179 115
-59 260 8 290 132 36 149 -104 282 -253 241z m114 -93 c58 -30 76 -104 40
-163 -22 -36 -54 -52 -107 -52 -50 0 -103 54 -103 104 0 97 88 154 170 111z"/>
<path d="M6263 2022 c-10 -10 -105 -169 -212 -355 -107 -185 -197 -337 -200
-337 -3 0 -35 53 -71 117 -73 130 -97 154 -132 130 -13 -8 -81 -116 -153 -240
l-130 -226 -70 -3 c-65 -3 -71 -5 -83 -30 -11 -23 -11 -33 0 -55 l13 -28 935
0 934 0 10 33 c6 22 5 40 -2 57 -11 24 -15 25 -117 25 l-105 0 -24 38 c-13 20
-126 215 -251 432 -125 217 -239 410 -252 428 -27 36 -63 42 -90 14z m281
-485 c130 -225 236 -413 236 -418 0 -5 -197 -9 -480 -9 -264 0 -480 2 -480 5
0 3 84 150 186 328 259 448 296 509 299 505 2 -2 109 -187 239 -411z m-802
-172 l67 -115 -40 -70 -41 -70 -135 0 c-105 0 -134 3 -131 13 5 21 200 357
207 357 4 0 36 -52 73 -115z"/>
<path d="M1193 714 c-3 -9 -2 -24 4 -33 9 -14 44 -16 293 -16 249 0 284 2 293
16 6 9 7 24 4 33 -6 14 -37 16 -297 16 -260 0 -291 -2 -297 -16z"/>
<path d="M1945 710 c-13 -42 9 -51 124 -48 l106 3 0 30 0 30 -112 3 c-105 2
-112 2 -118 -18z"/>
<path d="M1694 466 c-3 -8 -4 -23 -2 -33 3 -17 26 -18 408 -18 382 0 405 1
408 18 9 46 4 47 -415 47 -334 0 -394 -2 -399 -14z"/>
<path d="M1193 454 c-3 -9 -2 -24 4 -33 8 -13 33 -17 139 -19 161 -3 176 0
172 36 l-3 27 -153 3 c-134 2 -153 1 -159 -14z"/>
</g>
</svg>
